<svg xmlns="http://www.w3.org/2000/svg" viewBox="0 0 1024 1024" width="1024" height="1024"><defs>
    <clipPath id="sq-signature"><path d="M 512,0 C 81.92,0 0,81.92 0,512 C 0,942.08 81.92,1024 512,1024 C 942.08,1024 1024,942.08 1024,512 C 1024,81.92 942.08,0 512,0 Z"></path></clipPath>
    <clipPath id="top-signature"><rect x="0" y="0" width="1024" height="516"></rect></clipPath>
    <clipPath id="bot-signature"><rect x="0" y="516" width="1024" height="508"></rect></clipPath>
    <filter id="sh-signature" x="-30%" y="-30%" width="160%" height="160%"><feGaussianBlur in="SourceAlpha" stdDeviation="10"></feGaussianBlur><feOffset dx="0" dy="14"></feOffset><feComponentTransfer><feFuncA type="linear" slope="0.5"></feFuncA></feComponentTransfer><feMerge><feMergeNode></feMergeNode><feMergeNode in="SourceGraphic"></feMergeNode></feMerge></filter>
    <filter id="bl-signature" x="-50%" y="-50%" width="200%" height="200%"><feGaussianBlur stdDeviation="14" result="b"></feGaussianBlur><feMerge><feMergeNode in="b"></feMergeNode><feMergeNode in="SourceGraphic"></feMergeNode></feMerge></filter>
  <radialGradient id="bg-signature" cx="50%" cy="45%" r="70%"><stop offset="0%" stop-color="#1a2a35"></stop><stop offset="55%" stop-color="#0e1216"></stop><stop offset="100%" stop-color="#07090b"></stop></radialGradient><radialGradient id="glow-signature" cx="50%" cy="50%" r="50%"><stop offset="0%" stop-color="rgba(30,208,231,0.35)"></stop><stop offset="70%" stop-color="rgba(30,208,231,0)"></stop></radialGradient><linearGradient id="c-signature" x1="0.15" y1="0" x2="0.85" y2="1"><stop offset="0%" stop-color="#BEFBFF"></stop><stop offset="45%" stop-color="#1ED0E7"></stop><stop offset="100%" stop-color="#0a8fa3"></stop></linearGradient><linearGradient id="b-signature" x1="0.3" y1="0" x2="0.7" y2="1"><stop offset="0%" stop-color="#F0DAFE"></stop><stop offset="40%" stop-color="#C86DFF"></stop><stop offset="100%" stop-color="#490F6C"></stop></linearGradient></defs><g clip-path="url(#sq-signature)"><rect width="1024" height="1024" fill="url(#bg-signature)"></rect><circle cx="512" cy="512" r="460" fill="url(#glow-signature)"></circle><circle cx="512" cy="512" r="472" fill="none" stroke="rgba(30,208,231,0.28)" stroke-width="1.5"></circle><g opacity="0.6"><line x1="512" y1="60" x2="512" y2="76" stroke="#1ED0E7" stroke-width="2" stroke-linecap="round" opacity="0.9"></line><line x1="628.9862083863394" y1="75.4015265173411" x2="626.9156560255192" y2="83.12893312765368" stroke="#1ED0E7" stroke-width="1" stroke-linecap="round" opacity="0.4"></line><line x1="738" y1="120.5565174894337" x2="734" y2="127.48472071970923" stroke="#1ED0E7" stroke-width="1" stroke-linecap="round" opacity="0.4"></line><line x1="831.6122650963196" y1="192.38773490368055" x2="825.9554108468271" y2="198.04458915317292" stroke="#1ED0E7" stroke-width="1" stroke-linecap="round" opacity="0.4"></line><line x1="903.4434825105662" y1="286" x2="896.5152792802908" y2="290" stroke="#1ED0E7" stroke-width="1" stroke-linecap="round" opacity="0.4"></line><line x1="948.5984734826588" y1="395.01379161366066" x2="940.8710668723463" y2="397.0843439744808" stroke="#1ED0E7" stroke-width="1" stroke-linecap="round" opacity="0.4"></line><line x1="964" y1="512" x2="948" y2="512" stroke="#1ED0E7" stroke-width="2" stroke-linecap="round" opacity="0.9"></line><line x1="948.5984734826588" y1="628.9862083863395" x2="940.8710668723463" y2="626.9156560255193" stroke="#1ED0E7" stroke-width="1" stroke-linecap="round" opacity="0.4"></line><line x1="903.4434825105664" y1="737.9999999999999" x2="896.5152792802908" y2="733.9999999999999" stroke="#1ED0E7" stroke-width="1" stroke-linecap="round" opacity="0.4"></line><line x1="831.6122650963196" y1="831.6122650963194" x2="825.9554108468271" y2="825.9554108468271" stroke="#1ED0E7" stroke-width="1" stroke-linecap="round" opacity="0.4"></line><line x1="738" y1="903.4434825105664" x2="734" y2="896.5152792802908" stroke="#1ED0E7" stroke-width="1" stroke-linecap="round" opacity="0.4"></line><line x1="628.9862083863395" y1="948.5984734826588" x2="626.9156560255193" y2="940.8710668723463" stroke="#1ED0E7" stroke-width="1" stroke-linecap="round" opacity="0.4"></line><line x1="512" y1="964" x2="512" y2="948" stroke="#1ED0E7" stroke-width="2" stroke-linecap="round" opacity="0.9"></line><line x1="395.01379161366077" y1="948.5984734826588" x2="397.08434397448093" y2="940.8710668723463" stroke="#1ED0E7" stroke-width="1" stroke-linecap="round" opacity="0.4"></line><line x1="285.9999999999999" y1="903.4434825105662" x2="289.9999999999999" y2="896.5152792802908" stroke="#1ED0E7" stroke-width="1" stroke-linecap="round" opacity="0.4"></line><line x1="192.38773490368055" y1="831.6122650963196" x2="198.04458915317292" y2="825.9554108468271" stroke="#1ED0E7" stroke-width="1" stroke-linecap="round" opacity="0.4"></line><line x1="120.55651748943382" y1="738.0000000000001" x2="127.48472071970929" y2="734.0000000000001" stroke="#1ED0E7" stroke-width="1" stroke-linecap="round" opacity="0.4"></line><line x1="75.4015265173411" y1="628.9862083863393" x2="83.12893312765368" y2="626.9156560255192" stroke="#1ED0E7" stroke-width="1" stroke-linecap="round" opacity="0.4"></line><line x1="60" y1="512" x2="76" y2="512" stroke="#1ED0E7" stroke-width="2" stroke-linecap="round" opacity="0.9"></line><line x1="75.4015265173411" y1="395.0137916136608" x2="83.12893312765362" y2="397.08434397448093" stroke="#1ED0E7" stroke-width="1" stroke-linecap="round" opacity="0.4"></line><line x1="120.55651748943376" y1="285.99999999999994" x2="127.48472071970929" y2="289.99999999999994" stroke="#1ED0E7" stroke-width="1" stroke-linecap="round" opacity="0.4"></line><line x1="192.38773490368044" y1="192.38773490368055" x2="198.0445891531728" y2="198.04458915317292" stroke="#1ED0E7" stroke-width="1" stroke-linecap="round" opacity="0.4"></line><line x1="285.9999999999998" y1="120.55651748943382" x2="289.9999999999998" y2="127.48472071970929" stroke="#1ED0E7" stroke-width="1" stroke-linecap="round" opacity="0.4"></line><line x1="395.01379161366066" y1="75.4015265173411" x2="397.0843439744808" y2="83.12893312765368" stroke="#1ED0E7" stroke-width="1" stroke-linecap="round" opacity="0.4"></line></g><circle cx="512" cy="512" r="112" fill="none" stroke="rgba(30,208,231,0.22)" stroke-width="1.5"></circle><circle cx="512" cy="512" r="76" fill="none" stroke="rgba(30,208,231,0.35)" stroke-width="2"></circle><g clip-path="url(#bot-signature)" filter="url(#bl-signature)"><path d="M 612 128 L 388 528 L 506 528 L 412 896 L 676 448 L 554 448 Z" fill="url(#b-signature)" opacity="0.96"></path></g><g filter="url(#sh-signature)"><path d="M 752 372 Q 752 296 676 296 L 432 296 Q 244 296 244 484 L 244 540 Q 244 728 432 728 L 676 728 Q 752 728 752 652 Q 752 576 676 576 L 452 576 Q 360 576 360 484 L 360 540 Q 360 448 452 448 L 676 448 Q 752 448 752 372 Z" fill="url(#c-signature)" stroke="rgba(255,255,255,0.25)" stroke-width="1.5"></path><path d="M 724 358 Q 724 316 682 316 L 438 316 Q 264 316 264 494 L 264 514" fill="none" stroke="rgba(255,255,255,0.6)" stroke-width="8" stroke-linecap="round"></path></g><g clip-path="url(#top-signature)" filter="url(#bl-signature)"><path d="M 612 128 L 388 528 L 506 528 L 412 896 L 676 448 L 554 448 Z" fill="url(#b-signature)" opacity="0.98"></path><path d="M 600 150 L 408 515 L 494 515 L 430 830" fill="none" stroke="rgba(255,255,255,0.88)" stroke-width="6" stroke-linecap="round" opacity="0.9"></path></g><path d="M 512,0 C 81.92,0 0,81.92 0,512 C 0,942.08 81.92,1024 512,1024 C 942.08,1024 1024,942.08 1024,512 C 1024,81.92 942.08,0 512,0 Z" fill="none" stroke="rgba(255,255,255,0.06)" stroke-width="2"></path></g></svg>